#!OML:ASF F:\VICON\USERDATA\INSTALL\rory3\rory3.ASF
:FULLY-SPECIFIED
:DEGREES
993
root 2.68362 16.4291 -22.0681 23.2662 0.0457755 -368.419
lowerback -18.3576 3.53445 5.19157
upperback -19.8537 4.27935 1.08447
thorax -11.7497 1.63419 -1.32767
lowerneck -2.70494 -0.112203 2.31158
upperneck -15.3369 -0.0282236 0.377797
head -4.5928 -0.141553 -0.278092
rclavicle 5.76476e-015 -1.19271e-015
rhumerus -68.7423 2.1093 -22.3662
rradius 79.7155
rwrist 12.9563
rhand -29.8874 58.666
rfingers 7.12502
rthumb -3.2087 28.7104
lclavicle 5.76476e-015 -1.19271e-015
lhumerus -64.5481 -4.27394 16.0231
lradius 64.9124
lwrist -38.7594
lhand -37.0455 -3.85669
lfingers 7.12502
lthumb -10.1185 25.88
rfemur -23.9206 4.78543 38.9576
rtibia 22.384
rfoot -32.852 -25.6409
rtoes 33.7544
lfemur 103.967 167.73 157.98
ltibia 39.9807
lfoot 6.71633 41.7646
ltoes 14.756
994
root 2.68927 16.4215 -22.0549 23.3514 -0.011247 -368.776
lowerback -18.4494 3.56538 5.42878
upperback -20.039 4.30768 1.26022
thorax -11.9501 1.62752 -1.26008
lowerneck -2.53484 -0.0110061 2.32274
upperneck -17.9818 0.122146 0.209905
head -4.98828 -0.0794598 -0.329006
rclavicle 3.79679e-014 6.36111e-015
rhumerus -69.483 1.10948 -21.6139
rradius 75.6263
rwrist 14.0072
rhand -29.9691 58.5985
rfingers 7.12502
rthumb -3.28765 28.6441
lclavicle 3.79679e-014 6.36111e-015
lhumerus -65.8614 -3.32259 14.7237
lradius 61.3161
lwrist -39.1273
lhand -37.5816 -6.39453
lfingers 7.12502
lthumb -10.6357 23.3163
rfemur -23.8802 4.28484 39.4208
rtibia 22.298
rfoot -32.4068 -25.2929
rtoes 32.9193
lfemur 103.779 167.56 158.353
ltibia 40.062
lfoot 8.34355 41.4791
ltoes 14.3382
995
root 2.68908 16.4188 -22.0546 23.3818 -0.0494783 -368.789
lowerback -18.2535 3.45106 5.27305
upperback -20.2754 4.20611 1.35637
thorax -12.3889 1.59189 -1.09319
lowerneck -3.25234 0.13548 2.28013
upperneck -19.1987 0.320499 0.236538
head -5.24661 0.0105412 -0.321899
rclavicle 1.19271e-014 -9.54166e-015
rhumerus -70.1339 0.444592 -21.1242
rradius 71.5473
rwrist 14.383
rhand -30.4423 58.3092
rfingers 7.12502
rthumb -3.74459 28.3623
lclavicle 1.19271e-014 -9.54166e-015
lhumerus -67.2139 -2.94231 14.1295
lradius 58.6133
lwrist -38.3471
lhand -37.0398 -3.62011
lfingers 7.12502
lthumb -10.113 26.1169
rfemur -23.892 4.43141 39.4001
rtibia 22.2907
rfoot -32.5002 -25.3153
rtoes 32.906
lfemur 103.73 167.556 158.417
ltibia 40.0983
lfoot 8.09933 41.3328
ltoes 15.2503
996
root 2.68825 16.4151 -22.0558 23.5707 0.0737248 -368.899
lowerback -18.1666 3.36598 5.27386
upperback -20.5692 4.11823 1.3664
thorax -12.8341 1.53537 -1.10086
lowerneck -4.14352 0.261009 2.31588
upperneck -20.2348 0.497019 0.323111
head -5.4236 0.0832609 -0.307441
rclavicle -3.97569e-015 -2.98177e-014
rhumerus -70.8707 0.0654456 -20.7944
rradius 67.583
rwrist 13.9953
rhand -30.6322 58.1001
rfingers 7.12502
rthumb -3.92799 28.1566
lclavicle -3.97569e-015 -2.98177e-014
lhumerus -68.1226 -2.42323 13.2619
lradius 56.0659
lwrist -37.9269
lhand -36.2431 -0.893699
lfingers 7.12502
lthumb -9.3444 28.8792
rfemur -24.0555 4.51805 39.54
rtibia 22.2064
rfoot -32.4739 -25.4448
rtoes 32.9011
lfemur 103.473 167.659 158.607
ltibia 40.1599
lfoot 7.24356 41.3865
ltoes 16.8106
997
root 2.72044 16.4454 -21.9659 22.5123 -1.16694 -369.677
lowerback -18.5162 3.95416 6.10983
upperback -19.8524 4.73076 1.55723
thorax -11.6473 1.78428 -1.25373
lowerneck -5.24726 0.42411 2.55095
upperneck -21.7028 0.650209 -0.0452301
head -5.70421 0.152862 -0.469871
rclavicle -1.37161e-014 -3.53837e-014
rhumerus -70.929 -0.906842 -20.2379
rradius 63.3976
rwrist 13.3967
rhand -30.1636 58.1925
rfingers 7.12502
rthumb -3.47544 28.2411
lclavicle -1.37161e-014 -3.53837e-014
lhumerus -68.8214 -1.10564 12.4288
lradius 53.5852
lwrist -37.7335
lhand -34.9218 -1.01981
lfingers 7.12502
lthumb -8.06933 28.8061
rfemur -22.253 3.25239 40.1628
rtibia 22.0956
rfoot -31.4335 -23.9431
rtoes 31.3868
lfemur 104.941 166.162 159.192
ltibia 40.4111
lfoot 6.61526 41.031
ltoes 16.7313
998
root 2.6929 16.4181 -22.0416 23.2312 0.594492 -369.031
lowerback -18.0702 3.17733 5.32824
upperback -20.707 3.87918 1.29569
thorax -13.076 1.39479 -1.23599
lowerneck -4.74765 0.357075 3.47677
upperneck -23.4003 0.482193 -0.768146
head -6.33177 0.032288 -0.861373
rclavicle -2.96189e-014 -2.98177e-014
rhumerus -71.7588 -1.03499 -19.6769
rradius 59.241
rwrist 13.1979
rhand -29.4143 58.2716
rfingers 7.12502
rthumb -2.7518 28.3096
lclavicle -2.96189e-014 -2.98177e-014
lhumerus -69.1183 -1.05834 11.3501
lradius 50.9999
lwrist -37.4564
lhand -34.8746 1.17723
lfingers 7.12502
lthumb -8.02379 31.0049
rfemur -23.7095 3.90741 39.9296
rtibia 22.2382
rfoot -32.1753 -25.7334
rtoes 32.1553
lfemur 103.853 168.134 159.138
ltibia 40.2423
lfoot 7.28328 41.5442
ltoes 16.1547
999
root 2.69623 16.4134 -22.0524 23.647 0.381431 -369.195
lowerback -18.2306 3.41284 5.49195
upperback -21.2319 4.169 0.996189
thorax -13.6532 1.46874 -1.6444
lowerneck -4.54278 0.219399 3.26252
upperneck -24.3519 0.453346 -0.0658301
head -6.68269 -0.0164716 -0.602455
rclavicle -2.24627e-014 3.02153e-014
rhumerus -72.8393 -0.922498 -19.1208
rradius 55.4859
rwrist 13.3501
rhand -29.005 57.7859
rfingers 7.12502
rthumb -2.35657 27.8191
lclavicle -2.24627e-014 3.02153e-014
lhumerus -68.9487 -0.924313 9.43949
lradius 47.6765
lwrist -38.053
lhand -34.997 -1.27022
lfingers 7.12502
lthumb -8.14187 28.5529
rfemur -24.1856 3.90182 40.0578
rtibia 22.2922
rfoot -31.9036 -25.3503
rtoes 32.3526
lfemur 103.348 167.955 159.183
ltibia 40.2414
lfoot 7.47089 41.4486
ltoes 15.8442
1000
root 2.70206 16.4143 -22.0549 23.8868 0.284477 -369.144
lowerback -18.395 3.3896 5.49835
upperback -21.3636 4.12407 0.954932
thorax -13.7431 1.43593 -1.69203
lowerneck -5.37585 0.405223 3.36557
upperneck -25.3666 0.674707 -0.162143
head -6.87601 0.0786595 -0.662487
rclavicle -2.00773e-014 -2.94201e-014
rhumerus -72.8115 -1.36954 -18.3143
rradius 51.6234
rwrist 14.2303
rhand -28.663 57.2122
rfingers 7.12502
rthumb -2.0262 27.2421
lclavicle -2.00773e-014 -2.94201e-014
lhumerus -69.2513 -0.191921 7.51628
lradius 44.3222
lwrist -38.8576
lhand -34.7866 -2.30553
lfingers 7.12502
lthumb -7.93883 27.5254
rfemur -24.7252 3.92122 39.9718
rtibia 22.8327
rfoot -31.7564 -25.2297
rtoes 32.2786
lfemur 103.226 167.997 159.086
ltibia 39.9742
lfoot 8.29321 41.3069
ltoes 15.3836
1001
root 2.70703 16.4167 -22.0525 23.9498 0.312966 -369.082
lowerback -18.3255 3.05872 5.5047
upperback -21.022 3.69322 1.35777
thorax -13.3747 1.26736 -1.26894
lowerneck -8.87097 0.674553 3.04058
upperneck -25.3587 0.904999 -0.156168
head -6.30437 0.218746 -0.598394
rclavicle 9.93923e-015 -2.26615e-014
rhumerus -71.2963 -2.74329 -17.16
rradius 47.5628
rwrist 16.058
rhand -28.2092 56.8007
rfingers 7.12502
rthumb -1.58794 26.8269
lclavicle 9.93923e-015 -2.26615e-014
lhumerus -70.4112 1.77471 5.57488
lradius 41.252
lwrist -39.9181
lhand -34.506 -1.5324
lfingers 7.12502
lthumb -7.668 28.3086
rfemur -24.8169 3.85315 39.9151
rtibia 22.9053
rfoot -31.6793 -25.1081
rtoes 32.412
lfemur 103.186 168.136 159.071
ltibia 39.9603
lfoot 9.22145 41.1701
ltoes 14.4638
1002
root 2.71537 16.4185 -22.0477 23.8799 0.343712 -369.129
lowerback -18.2701 3.03012 5.59242
upperback -21.135 3.65724 1.35845
thorax -13.5593 1.2304 -1.32293
lowerneck -9.28817 0.730038 2.8797
upperneck -26.4439 1.04841 0.145383
head -6.60106 0.274077 -0.479585
rclavicle -2.28602e-014 -4.37326e-014
rhumerus -71.2125 -3.33592 -15.6421
rradius 43.7955
rwrist 18.2872
rhand -27.8698 55.9263
rfingers 7.12502
rthumb -1.26012 25.9503
lclavicle -2.28602e-014 -4.37326e-014
lhumerus -70.589 2.18855 4.416
lradius 38.5926
lwrist -39.5655
lhand -33.7099 -0.235305
lfingers 7.12502
lthumb -6.8995 29.6323
rfemur -24.6925 3.83598 39.9408
rtibia 22.8572
rfoot -31.7686 -25.1025
rtoes 32.4645
lfemur 103.303 168.218 159.187
ltibia 39.9466
lfoot 9.07693 41.3044
ltoes 14.0808
1003
root 2.72081 16.4184 -22.0457 23.9327 0.150101 -369.246
lowerback -18.403 3.07659 5.67652
upperback -21.1333 3.69721 1.39197
thorax -13.4826 1.24306 -1.32184
lowerneck -9.90867 0.846994 2.824
upperneck -27.682 1.23325 0.251826
head -6.92168 0.350164 -0.442148
rclavicle 9.54166e-015 -3.22031e-014
rhumerus -70.9518 -4.40094 -13.6555
rradius 39.8954
rwrist 20.8491
rhand -27.5211 55.1812
rfingers 7.12502
rthumb -0.923361 25.2034
lclavicle 9.54166e-015 -3.22031e-014
lhumerus -70.6744 2.90201 2.6476
lradius 35.9768
lwrist -39.2192
lhand -32.3646 -1.46142
lfingers 7.12502
lthumb -5.60079 28.4446
rfemur -24.6669 4.23007 39.9239
rtibia 22.7742
rfoot -31.7174 -25.3644
rtoes 32.3502
lfemur 103.265 168.065 159.265
ltibia 39.966
lfoot 8.6457 41.4225
ltoes 13.9473
1004
root 2.71605 16.4275 -22.0235 23.3708 0.491714 -368.768
lowerback -18.3281 2.75356 5.12142
upperback -20.8969 3.31656 1.36164
thorax -13.2328 1.13476 -1.0804
lowerneck -10.8523 0.959197 3.22691
upperneck -28.6868 1.25598 -0.236756
head -7.11457 0.346011 -0.674053
rclavicle 2.78299e-014 0
rhumerus -70.5341 -5.71026 -11.2911
rradius 35.688
rwrist 23.6703
rhand -27.4317 54.4238
rfingers 7.12502
rthumb -0.836991 24.4457
lclavicle 2.78299e-014 0
lhumerus -70.8666 3.17668 2.44728
lradius 33.9773
lwrist -37.4099
lhand -31.5991 1.64557
lfingers 7.12502
lthumb -4.86163 31.5698
rfemur -24.0653 4.6648 39.4189
rtibia 22.7704
rfoot -32.6059 -26.1028
rtoes 32.8266
lfemur 104.085 168.599 159.129
ltibia 39.8886
lfoot 8.45179 41.2414
ltoes 14.2999
1005
root 2.7237 16.4269 -22.028 23.6457 0.360927 -368.889
lowerback -18.1072 2.81994 5.35352
upperback -21.2479 3.41072 1.28775
thorax -13.8176 1.12246 -1.29731
lowerneck -11.8327 1.00089 3.50138
upperneck -28.9406 1.24722 -0.331836
head -7.05204 0.320951 -0.748823
rclavicle 1.05356e-014 2.42517e-014
rhumerus -70.2969 -6.43243 -9.16702
rradius 31.7702
rwrist 26.3075
rhand -27.6055 52.5208
rfingers 7.12502
rthumb -1.00491 22.5434
lclavicle 1.05356e-014 2.42517e-014
lhumerus -70.9893 3.37285 0.885247
lradius 31.9163
lwrist -37.6316
lhand -30.572 3.13032
lfingers 7.12502
lthumb -3.86987 33.0749
rfemur -24.3864 4.71544 39.4778
rtibia 22.8228
rfoot -32.6389 -25.8249
rtoes 32.9305
lfemur 103.851 168.54 159.177
ltibia 39.8137
lfoot 7.84956 41.3961
ltoes 15.3056
1006
root 2.73267 16.4177 -22.0265 23.7987 0.437019 -368.924
lowerback -18.3351 2.82793 5.49099
upperback -21.2489 3.3855 1.22925
thorax -13.6877 1.08732 -1.43068
lowerneck -13.672 1.02595 3.31079
upperneck -28.6438 1.30403 0.0963859
head -6.68126 0.3507 -0.562187
rclavicle -1.86858e-014 1.35174e-014
rhumerus -70.0216 -8.05843 -6.21472
rradius 27.9278
rwrist 29.1128
rhand -27.2665 50.0524
rfingers 7.12502
rthumb -0.677486 20.0738
lclavicle -1.86858e-014 1.35174e-014
lhumerus -70.9986 4.11661 -0.322831
lradius 30.0861
lwrist -37.5848
lhand -29.3996 5.68792
lfingers 7.12502
lthumb -2.73764 35.6501
rfemur -24.6081 4.76446 39.5009
rtibia 22.9014
rfoot -32.4101 -26.034
rtoes 32.4578
lfemur 103.675 168.725 159.232
ltibia 39.6697
lfoot 9.58979 41.3791
ltoes 12.6525
